<mxfile host="app.diagrams.net" agent="Mozilla/5.0 (Macintosh; Intel Mac OS X 10_15_7) AppleWebKit/537.36 (KHTML, like Gecko) Chrome/135.0.0.0 Safari/537.36" version="26.2.14">
  <diagram name="第 1 页" id="_P9CBCua8JEZp7tgkQIp">
    <mxGraphModel dx="2255" dy="2075" grid="1" gridSize="10" guides="1" tooltips="1" connect="1" arrows="1" fold="1" page="1" pageScale="1" pageWidth="827" pageHeight="1169" math="0" shadow="0">
      <root>
        <mxCell id="0" />
        <mxCell id="1" parent="0" />
        <mxCell id="KAl-MF6hwwFQekzXLP5y-1" value="" style="rounded=1;whiteSpace=wrap;html=1;sketch=1;hachureGap=4;jiggle=2;curveFitting=1;fontFamily=Architects Daughter;fontSource=https%3A%2F%2Ffonts.googleapis.com%2Fcss%3Ffamily%3DArchitects%2BDaughter;fillColor=#d5e8d4;strokeColor=#82b366;" vertex="1" parent="1">
          <mxGeometry x="-220" y="335" width="1110" height="250" as="geometry" />
        </mxCell>
        <mxCell id="KAl-MF6hwwFQekzXLP5y-2" value="&lt;font style=&quot;font-size: 18px;&quot;&gt;小红书&lt;/font&gt;" style="ellipse;shape=cloud;whiteSpace=wrap;html=1;sketch=1;hachureGap=4;jiggle=2;curveFitting=1;fontFamily=Architects Daughter;fontSource=https%3A%2F%2Ffonts.googleapis.com%2Fcss%3Ffamily%3DArchitects%2BDaughter;" vertex="1" parent="1">
          <mxGeometry x="-50" y="400" width="130" height="90" as="geometry" />
        </mxCell>
        <mxCell id="KAl-MF6hwwFQekzXLP5y-3" value="" style="shape=image;verticalLabelPosition=bottom;labelBackgroundColor=default;verticalAlign=top;aspect=fixed;imageAspect=0;image=data:image/png,iVBORw0KGgoAAAANSUhEUgAAAM0AAABgCAYAAAC+PvZZAAAACXBIWXMAACE4AAAhOAFFljFgAAAAAXNSR0IArs4c6QAAAARnQU1BAACxjwv8YQUAAA0KSURBVHgB7Z1LbFTXGce/cz1UlRKc6SqRghRLmAq6Cd0EKa2UwZC2uwRYFhV7SwWEVApSUxW7UqTSRXlYTdVsakdtd7y6ahMeU6lZkE1gA6iA4kog0Z1rg1SBZ07P/94Zezy+j+8+z70z3w+ZGY+vZ65n7v98z3OOohKjtzfGqOU0SFOdFL1OWplbvdP7IY2RUF0ULZjPc9Hc63zpW+b7m+Q4C+re5zepxCgqEXp8b4OobUSh3jHfQRx1EoYU1TRfEM9ldf9Kk0qEddF4QiEjkvYkiUgEfxZdESl9Wd27NkeWsSIaPfZunWpLx8zd90iEIsRjkZS6RCObZtTdvy2QBQoVjWdV9Enz1SBBSI1rfeaLtj6FiEbEIuQKkgpEM0WJJ1fRuG7YpuXTpPUkCULuGMtT2zSVt9uWm2j0tj3HjFimSWIWoXimaWX0rFq4tEg5kLlo9PYfjdHK8z+KKyZYxXXZRvblUfNxKENc67Ly7CsRjGAdFL916ys9PnGSMiYzS2NO7jR5KWRBKBnZxjqpRdNxxy52KviCUE7gro18Y3cWwkklGlcwrWfXpQ9MqAimMDqyO22ckzimEcEIFaTuxjnf3nOIUpDI0ohghMrjqEn1r6vzlIDYohHBCAODVvvUg6uXKCaxRCOCEQaMRDEOO6ZxW2JEMMJgUSdqXXSNQQz4iYDa0kkRjDBw4Jo2JRPXKDBhiaZTVZXCpTCgmBpj7Qm7cyAypvGKl8++JkEYfI6r+9fORB0UbWkQxwjCcHCSE9+EisZ1yySOEYaHutehH06ge1Ypt2z0RaIdW6OPu3GLCuXDnxLt/V74MXfuEx3+JZWWyQNEhw6EH/PoMdHB92lgiKjf1AJ/ceXZaaoKEMyffht93LY9VBhbXjEX3P7o42YTFaWLY/ML5m95OfwYpWmgcPRpk01rBk1i83XP9LaJSXPzLgnJ2ffD6GMemhH6wt9JKBkISWpLgdniIEuT+cSdoePAD6KPmf00/OdvG9du84uUKXceeC5hP/uNyF/1sSi7GDM+cI77AwYJuG54zaUnxGa083ywco/+Q/TlLW+AKZZjxtqc8bM2G0TjWhkJ/tPhXoCvRB8XFWP9/LDn5mXJuflg0ex6nRKBi/zUB+HHfP4F0ZUvoi0rYqgPD69/DII7ZwaY+fNUIPWOtZnu/8FG90yrVG3TguHoT6KPwcXzqPDR0x6wmhBW88/BA4GfYABE+YvDyUWdnGN+nQLrRNNZn6xBQnK4VubcpzSU4L25/Af/bGdU4uRI4eM5rM1k/4PrLY3SYmXSsp+RABg2K9MPLAeynb0WB1YkarDBMaMZx3iRYDH+9ayKRo816rKoX0rwoXJcCMmYeRf/rz+g8qMbnUX6V1mzNJuc6qaYCx99AuBYmRs3iy+ylhXuINMFGbQ4Wbis0HqdNtZEU+UEwOYSiAauBss1+4yEHqK6DXqZtRQH9oUtrmhc10wSAOk4wsiYSTFzI1xLg84Je+9dvddF8+o0IyMNlEGtEtWqAZae5mOe074218oAZI2Wn/BeJyhZwKnd4Dn8znf5qf/xbu3G5xpAcB71ekGvxTlPuNY4Dud1w2fWMd4DWGfrLm27Yf5r4l6nuFkCK3P5k+jY5MSpfNwbTmMlRrkTv/H/GcfKAFwcf/0k/JjGj9cuwIM/8z/m3lWKBIXEoPP146OP/R/H33b0ULLXghXh9ASC2/eD/95SoN7q3vNiGrX2gDU4wfzSU8oFjvUKipsghCjBccFIO0ipaK51KENMGonJonUKnU4nnrG7pCw3+7WcU+aE09c0+oL/429kWDuYu0BDSdB7WzZqT1ydOFSr2V+DmTvS5GVpOGIM8s+PMl2zKCBcuDlCiWl3RNO5YxVOIA7ycl2SivE747yWGQ6zQ9pWUyUUuak+p1IdzXkVtjiWxk8c2xmzRTlIKroaaP0t3DgmCfAa2eZVZgo1LzBng0N/7HL3AWVC1a3Mq0xPoeoo5VoapJzt74nJCQSXcxTNf5nPDdH0ihdpUhTd0nTf4vls1SDw90S995xaC2LSLSmEA9Hh9x8yBy9bdLyyGik9ZruuyUoEPCxBKtbvPNHif/6zzizLvgsQ80OiMmsI/m2lmT/+VTZzVBDbXf8LJebUibX7eC9uP/Dc1RImRpB2rhnBlMDSWM7Tcy9ajIh+sx7x+3N9swpxMR5lWKBhnVcTBFx1fGEQwvuK96dM8d43F+soblZDNI9yNt1pajV+yLya9EA8mO15pFy9xJnu7pwY24kALtx6ErcXbViLmXFBLSxON3SetKheDtFwyFs0HEvGdSM5vWhomfFz9QR/IJwyzJvStZKIhpOyzNuN4Tw/50ODlWHN3pR5NbHAe3+Isfhi3tRWFiCaRbKNzWbNOHDO8w3GXHcpZiZjl/3mFWCKmxURzXLO7hknEcCJaTi9aHOFrt81OBS/hNNG/ldfNClntWh1Atqo5WbNOES5kdzlm6YOeLWNfiCmOxl1GQwqcH8t1uyw4qYpbrZvGeHYs3vcFSRzj2kYiYCXIgQ+yfS5Iaz9fX/3w8fF12ywW0FUGn3v9/0X8OsFSZqkOx90YxWu64WBy5ZoFC3gpkZtY2lib4yeIZuZtY+8s2fLKSaiAbgOO8YpMVivuOiaTdA05f5jolhO2QqEJWuxgmZZ0spBaLWAG8f8i7UddOZw3LPbBaRmbzPcIrdXK+B8uWsEBDHsnQFVyCZqckcGkz0bsSsazlThRwU08nFH+aDNo3akmCYgnQH8plmbKL2AG4eeP18gm3AyIkUVATmvE2RR0sxzl/6ziuC4BsZRC02TPVP2rA0ncfdlQa3zafzy+YQtMYO2mMYAo+5faeLW6wjQ+h9kC86eI0XNN+GIM8gqIF2MZYziWkWZ5lwRVLN7r7b2gD5GNkAAiC7WoAD7RoFGEOJEtijsXMKsAmITqfQPKGuGxbM0rVaTbLXT4CINq5AXmVXBuYQVF6VfbIhxmqv38J/1uAbxQFA9oOipwEGWIqxfrCy7Fgj5YIqa3XgG9Oy5qS+b/xpkAwgGF+RkX3HLRioWU2z9XLSg2APZNEyUgrgRz8QpwsKq9U/pRYF075uUGjxP1BQFv9e3xUulHniavd+siWalPUc1B7s625nJiQlZ/aLhNjZm2cjXdRd7pyqHWZlu60zcvVbAwfc3Pvb7mWzWUkPdKKp2hE1rixANZwGPIxktupgH2pnv/XZVNHDR9NaJeWOK7CQEYFEwWncvPFyk/fEFRvX+qa/4MLJ2j+YvrF8U42KAYNK0zjx8vNH15DZ8VpE0C2/YBK7ZvTXXDPTtuelcIpvM9gjaL7WLUXHLy+u/uIKJ04rTn5w4H5AASDN33c/dS9uKU1ayXKaq+C7wmf4H1onGC3bW8tGFgzcWXxCPXyzTjX2SEHdhP1ibrlvmdy7cGZp++Ll7Sdy7KjE7T6lByr/ItSJcK3Ntrv/hms+RM1b3q0GBMKoWkmREjruIBT6csP1S0vjgw2RlunQHxDQDQ9Epf02+St+wRoB1axOVLeu++XFw46ME/Ws4lyArk/Qi97MyaZ6vSlz5JyUG7nKRhWPMnamZ5JgPAQtrqBkqM3FMfR6Tu9JYGb+kQpkzR1kCS5HEvYJYgnZqywtjZdTd5oLfj3xFY93aRAFLw5m9Bx8YLlaWtZ60VqE/qTAsVgZEdX/4Hf/R7+Jtg5gFbjHz2nTQj2uBv1hrTdGK8zWVFcQFfiM0ZhHCFctrc1OIFR/i22/Gnw7gNzsT84luWGrG4MxTcmdlRpxfnEEJCZawuAavh4XQkSlFpszOIpGhnlboRGc9PjFtbk6SIAwLiuZMxmwq7JDwxQJX2me6iwkIwsCDa32kHRnPh4rGa+Rs7yNBGA5mgoL/XiKXpVX3mnBoj5MgDDJanfUrZPrBWsvZZBKMm6YyKOkKQgmBW9ZqTXMP5y+A/rz1ntU5N4KQB14cs9sLRXiwReM+aa21TxIDwgDhxuycOKaXWFttuE9uVCnCEQYCraY6MXssYu9PI8IRBgJFU+rB1URTYRKv4qy3N8ao5VzvbhMtCJUBgmFmyvx/PQUiHKFiLJIyQX8Cl6yXVNsHrrpqklUTyo7X6v/dtILxnioj9NaJM9bWFxCEUFQTDchxs2SBz0YZoscnTC2H7K1oIwgbmQlr809C5ts5SZwjlAK4Y9qZ6l3kL7unzgnX6sBdE/EIRaPVWbTFxKnyxyHXjQM9q6OmzR+RYq0jQeBiYhfVOp5FsB/6KlQAIh4hXzA1X83k4Yr5vhoViIhHyJZixbL6qmSBVfGQektiHiEmi+56ZMq5VLRYutjcDN1Fj+9tGD90UgQkhICAvmk8lHnspZRXgM/Fumh6cQVE7Z3mtN4x35lbqfcMKd5+SVrfctcXX1m5aVsovZRKNP3obY2d1B4ZI2UEpOg1M9KMEYSkdF2sUsXpdslrteBuNa7p395j7Zt5Z7/S8n8dgsfPv/PfFwAAAABJRU5ErkJggg==;" vertex="1" parent="1">
          <mxGeometry x="-20" y="510" width="76.88" height="36" as="geometry" />
        </mxCell>
        <mxCell id="KAl-MF6hwwFQekzXLP5y-4" value="&lt;font style=&quot;font-size: 18px;&quot;&gt;抖音&lt;/font&gt;" style="ellipse;shape=cloud;whiteSpace=wrap;html=1;sketch=1;hachureGap=4;jiggle=2;curveFitting=1;fontFamily=Architects Daughter;fontSource=https%3A%2F%2Ffonts.googleapis.com%2Fcss%3Ffamily%3DArchitects%2BDaughter;" vertex="1" parent="1">
          <mxGeometry x="140" y="400" width="130" height="90" as="geometry" />
        </mxCell>
        <mxCell id="KAl-MF6hwwFQekzXLP5y-5" value="" style="shape=image;verticalLabelPosition=bottom;labelBackgroundColor=default;verticalAlign=top;aspect=fixed;imageAspect=0;image=data:image/png,iVBORw0KGgoAAAANSUhEUgAAAFsAAAAiCAYAAAAwG6WQAAAABmJLR0QA/wD/AP+gvaeTAAAGm0lEQVRo3u2ae2xTVRzH7zbadfSu7e3D6ag60bHAAOVtkIlAcBAeWyGDCCgIAQQfAwnwjyQEFDRIgguKihKHCmZEMBMFA+kejscYr+kgIgzBbRIYXVsGY+vGrt+znQuXrb29vW0Hf/Qk35zu3vO6n3vu7/zO74xhlCbebWQ8rspOanatYCIpxImvtwAuryr87U/tovmFggZOm/Mlz2Ss5JksYwRSiGFr31ls5ziOF2QyGK+2Mpl3eGbK8xFIYYZNlKseephnMhdFIHUB7ASD6YI7avLeCKQugE3UX5945AozfmQEVBfAJnrUYCrTLJrbU2kXBoNhK9qphMoDrYs6W5TWFSe9Xo8muAu0rUqMyfZQwiYyJCT8HWPfl8M0uaYzTXX9GL4qLgBg+bQdd6DDMxqNu2XUVROY/kRhtz+PwfC1v/KJiYndHwhsqpvszOkF0RfP1DDNzpdCARsw06Ey8vDQEjzkmPj4eHMgsFFmmoyxByy0u+lBwhbUmq9J28cztl3BwgbgyT76OB+BTfWLKu0k3MIqCcCH/bSxnYIai9/NXu7fkAsb9/pDH4ZBk7oEdib7VMHrbEohfjeFE7ZgczHDn8O1WdBH0K/Q2QBs9n0pKSlJg3pZRKiXJlXWbDY/JpSF+gQHs7luBONxbwTQMqbZXYPcyXicOf5gz2aTCwCTPxUzelsW+3SBhTPWBAj7fSiPSqjrEV17K4QLZMcUg/K3ab1yP57S26JF8zVlkD2uQVAhAdmmW7Ue1Y87T8QtX1I4Yvy0XIBah634k/5gwy734pnJg5HvroxOv5SrHnZ0XdyA4kvR42qkYMu12VarlXg1qiBgd8OiOqijUP4irdfg7b4gUfsE9qte2tH7Ae2cA4CNBGLUtUt1bMbEAs5orBMaHabrcaQdZOYYObDvfgTMFCuuzcM18rKKkdtDtEASm32GzHg8/GpiK/GgPeXA1ul0xnAsjiJNlAI9V5jN6h3flIohBwtbaVLojdx4uGF73EMAronA03ywuggFW7w18DDBNplMQ3H9lJeFWK43EosyC8Il9PuEr1ld0habzs87QRejeyFTzugYqEs8MkL3+O9ztb2KHhDsBszkbOSf4UGWdSimwvW+0CvQepTbFcQCGeZEdnTEfNRfvc2ZzVXiDcgsNrmoMSqjkQIWK2ywAWkp2tkLaOc6vngvrl9IvBGLxcKi/BqRx6NEn2LMSf4WxRwCLW5Z9n3QCOh7cDN2Ih/KM+NjcQJjgZcRHy7YAfrZUi7cXlr+FjSDfBkAOtVHn9+HyE6T3WuMlKtXTqBxVmuF2HSIZvSKQDY1IYTtIjEV+pv4vjPgaQwGMB3xOJDPB8BVyD/BvR1QAVSBv6+Sr9IHjFwffdbS+/WofxDtHghEqFct9IHNTooU7Nrof89ViwcIG32UArMHuoMMgRlJZVn2EakFEn8vVDjzfMG+Qe9vVhgKzhT10V8Ktke1P/+4eFBpOushOqtn+azXcL2HN9gLtSlh90YkYDfSWXaKzvC2ayQqiHwmWUilYKPcMYWxkDy5sK/Ffp5TLB70E3rzWWqrh/teWN3p3mCv1zxb3F53anK4YJN4CGDOI7428uHwmZPx+cYrXSBFMzsUkoRtV+/6rtOiVKIa9RdmZ5YE7J8IbDZj0n2wD6peLG+HPYELp58dSm9EBPs09IUC7ZcHu9m1stvJQxWdDm050+WKmLGbfbiL77a5i411LTiJuXBvYeWutzAZLYBdHwqvFG2WdCVsfCkfK7TZNnmw+ZsJTJPzJmcyXekUBOc4B7ti6Rs4zuqLgFQiXszL0B5hWx+X/Wan8Cq19T8rBQxIa+l533+itq+HGbaDlq2l556BzuwzdyecydRburcm51rd6FEHvdogo9Gl2bShBLP4jgA5qv5ag3b2TLt4W48X43JETXBQ2HOCmM1bvIwjL8yw94TIXldJRSLp7Oa7xfxRuoeu5t4bMpuv6FP7HNOn9CojL6DjcddWzbASCroSGx91ECfq2WIflhwxkUNUBS/tW4gE0y77K0vOLslLRn+l6O+4EtHIY6q80TU4rPHj0rcreJut2dregvloRTh1QuT/POQkx3mdxZLwg+yDTY5zblUPOSSKmayKQAzkaJFZoHqve781zxgSjvva9hKvw8b2tItsNPFAlkXoKYZuy6qOGlf6VeyQkuVxqfbF2t4HNmgGFNlVI09T904IUiHGPeWFCLGggZMon20itK0dqq0agP/Bb7IYbkSexjNMVISUvPQ/v8s4LZ9d/5YAAAAASUVORK5CYII=;" vertex="1" parent="1">
          <mxGeometry x="160" y="510" width="91" height="34" as="geometry" />
        </mxCell>
        <mxCell id="KAl-MF6hwwFQekzXLP5y-6" value="&lt;font style=&quot;font-size: 18px;&quot;&gt;快手&lt;/font&gt;" style="ellipse;shape=cloud;whiteSpace=wrap;html=1;sketch=1;hachureGap=4;jiggle=2;curveFitting=1;fontFamily=Architects Daughter;fontSource=https%3A%2F%2Ffonts.googleapis.com%2Fcss%3Ffamily%3DArchitects%2BDaughter;" vertex="1" parent="1">
          <mxGeometry x="330" y="400" width="130" height="90" as="geometry" />
        </mxCell>
        <mxCell id="KAl-MF6hwwFQekzXLP5y-7" value="" style="shape=image;verticalLabelPosition=bottom;labelBackgroundColor=default;verticalAlign=top;aspect=fixed;imageAspect=0;image=data:image/png,iVBORw0KGgoAAAANSUhEUgAAAFEAAAAgCAYAAABq8ZRSAAAABmJLR0QA/wD/AP+gvaeTAAAGAklEQVRo3u2Za2wUVRTHp7Azsy0K4RFFYgBRozHGV42mvmgodHe2Vu1j+9jyoYKWGiSKic9grIgYxGgkIfGJ4iMYQGPjI4Z+QAziAwgqBkWFxEgRNVBqabS09Pq/s3e2Z2fnzmO3UrGd5GR37j13Zu5vzj33nDOK4nCwFmUUi2kJZmgfMUP9Db9/4/w7ZujPs6h2iTJyuB8sNmYyQH0KcEwiJ9D/CAedNs5QdFasnDYC8CbldEDabYOGc3Uzfn+xtT/O4spoFlUXwEq/Iu1HWFR/EVZ77vCEaKjPEBjfsoh6adoSj2p1aO9MWaShfelisZ2AGRleALEUMfG/kgD0P/iydtSL6GUOwHoxZit+N0IOkPaj0D8vyHPE4/EnIAzSjtM8ic6TQufAyeJTWVl5Nu63E7KppqYmIrFC3SCTX+Zusdp2onsYFntVqi+uaGh7lfS/nCVE1tLSMkpM4CycF1qCSawVOv20nUi+/brV1dU3o70tS/kY0mU9F+7/mGwp356aeEyrct989OcGdNXmjP4kyIOWNXpAy8dDzcbvrMbGxrATRPz/xmrzKcsc7nNnwGs4iniBoyVgzJAmCSaqzvewxLeIpV0k0XknpRNRJsiuVVVVNYM84DwJxB8CTvQp+33QdgP6tkN2SGQnucZBW9/nGL8O1lzq7hPLtIsJmA89dvCOAeDhEgnEz1L+slBRfUJsdoKIhzcgcUtwtFrL2dbeJ4PodTQ1Nalulhxgd9a+9lymMW192qYSU9syY8bwLPT1C9fwhds93SBWVFRMTCQS4y2YxKpWWBBtS7Z36CHG9DkidLF8Iwd2C4uGiuAz5+H/LsdwJqZ/At0aZoSuxfnDkG5yjUS2EC3BxjJNAvHEfw6iCTKqL05ZkVT037nfxP8uV72Y9rrX/fxAhEwdDIhoX47+fRLZT+7X4aK30R/IZCz4owTOe/CD05N+VC1McwEDwuPNR3lGkyPEB/iual/O8H8rs4GIvg8GYYfe5t8izZQudB2W6l1mrsxDoNLwORl6CIjNZcz1kku5gZUp4/3eh0IEnAVOG4tDzPe00OkJAhHjHkTfeifBuA0E1B6ZHq5xW25LvTx/KpZyKaDGpWKEZgaBiAe+jFhivR1iXV3dFB5HUkHf+0LnmK29T7RvwMu5MsjciouLQzn5RDanYAoPVWST5zk04G1x95MZaeALfqo6eOAoscRiO0QCLKhsPWkQk9aj9YjJH4OsYOXKJJLJXJ4WFwaTbbxE5nZ/gFtEHv4CB4ibsoS4mbyoIhpPSqSOjH3bh36c7+hWbPizw+S7AHc5K1EmJkGk2t9AeyWLhGdLJblr7yFj7nODKPwRf/BOYQ1pEGtra6+wLVluuX/agHXzgJzqwQ1MJxDbByPlc5BxFkRrsn2iik1h0njvFd/WDbeAax2y6pEey3mHeKBWWQHCBn0umcQu4k/nutzj0L8A8Hh5eXlBOsSY/hJ8WAgZyK0435dhnQFrgxizVozt8YA4ATIflnSjF0RkMGfw8pcVy/FNB7+HrdJZfX39JEkZaxqPAjzkfPJCVnvpQ28ynawApa5KtSHXNTOUmLZ/AGKoKFj2oz6bGiupC/othYn2cZAtZKILhWU2082koaFhbDaRR24biwNE58rO0EHEm78a59+TSbYSwHk8iyB9e2HV1wSFCCs+k0QJSwYFolmtMb+VDC1ETGipzRe1pXyROEQd8l2i089TPB9u5CeSzh0lEEtygshKlTF8RzU/EVCfGAldH7CYsVqM7c8FIn7vEOd9ANPCl51kaB767+dZjFjui33ca7dDLXJdNuUvC9ReyFKyq9orNff4vqaZCqY+Ifwa8PPATCvF4mBExsId/YV+00jor+LfRLx0eWxIUro1uHdCCfDCKcRuSaCMD0763WbFJnneYX6HsdUOM1NDpQC6K7MJjU7hj/UIbdLhtQPWIoQ7YdG/0CF2POIivWmfTYfD92ezWh3V78WE3+TVbAueLTVcgv7jwVI+uIWAfvT/D7ssPANwHgLQ18yKt0wMbY35Mgxl7Ai1kWPkGDlOseMfsfatLS7HRtcAAAAASUVORK5CYII=;" vertex="1" parent="1">
          <mxGeometry x="364" y="514" width="81" height="32" as="geometry" />
        </mxCell>
        <mxCell id="KAl-MF6hwwFQekzXLP5y-8" value="&lt;font style=&quot;font-size: 18px;&quot;&gt;B站&lt;/font&gt;" style="ellipse;shape=cloud;whiteSpace=wrap;html=1;sketch=1;hachureGap=4;jiggle=2;curveFitting=1;fontFamily=Architects Daughter;fontSource=https%3A%2F%2Ffonts.googleapis.com%2Fcss%3Ffamily%3DArchitects%2BDaughter;" vertex="1" parent="1">
          <mxGeometry x="520" y="400" width="130" height="90" as="geometry" />
        </mxCell>
        <mxCell id="KAl-MF6hwwFQekzXLP5y-9" value="" style="shape=image;verticalLabelPosition=bottom;labelBackgroundColor=default;verticalAlign=top;aspect=fixed;imageAspect=0;image=data:image/png,iVBORw0KGgoAAAANSUhEUgAAAIwAAABACAMAAAD/NG/DAAAC91BMVEUAAAAA//8AgP8Aqv8Av/8Amf8Aqv8AttsAn98AquMAs+YAuegAquoAsesAtu0Aqu4Ar+8AtPAAqvEArvIAs/IAqucArugAsekAquoAresAsesAquwAre0AsO0Aqu4Are8Ar+8AsvAArekAr+kAseoArOoArusAsesArOwAruwAsO0ArO0Aru4AsO4ArO4ArukAr+oArOoAresAr+sArOsArewAr+wAsOwAre0Aru0AsO0Are4Aru4AsOoAreoArusAr+sAresAruwAr+wArewAru0Ar+0ArO0Aru0Ar+4ArOoAresArusAsOsAresAruwAr+wArewAruwAr+0Are0Aru0Ar+0Are0ArusAr+sAresArusAr+wArewAruwAr+wAru0Aru0Ar+0Are0ArusAr+sAresArusAr+wArewAruwAr+wArewAruwAr+0Are0Aru0Aru0AresArusArusAr+wAruwAruwAr+wArewAruwAr+wAre0Aru0Ar+0AresArusAr+sArewAruwAruwArewAruwAruwArewAru0Aru0Ar+0ArusArusAr+sAruwAruwAr+wArewAruwAr+wArewAruwAru0Are0ArusAresAruwAruwArewAruwAruwAr+wAruwAruwAr+wAru0Aru0Ar+sArusAruwAruwArewAruwAruwArewAruwAruwArewAruwAru0Ar+0ArusArusAr+wAruwAruwAr+wAruwAruwAruwAruwAruwAru0Aru0ArusArusArewAruwAruwArewAruwAruwAr+wAruwAruwAr+wAru0ArusArusAruwAruwAruwAruwAruwAruwAruwAruwAruwArewAruwAru0AresAruwAruwAr+wAruwAruwAruwAruwAruwAruwAruwArusAruwAruwAruwAruwAruwAruwAruwAruwArewAruwAruwAruwAruwAruwAruwAruwAruwAruwAruwAruz///9vqn0/AAAA+3RSTlMAAQIDBAUGBwgJCgsMDQ4PEBESExQVFhcYGRobHB0eHyAhIiMkJSYnKCkqKywtLi8wMTIzNDU2Nzg5Ojs8PT4/QEFCQ0RFRkdISUpLTE1OT1BRUlNUVVZXWFlaW1xdXmBhYmNkZWZnaGlqa2xtbm9wcXJzdHV2d3h5ent8fX5/gIGCg4SFhoeIiYqLjI2Oj5CRkpOUlZaXmJmbnJ2en6ChoqOkpaanqKmqq6ytrq+wsbKztLW2t7i5uru8vb6/wMHCw8TFxsfIycrLzM3Oz9DR0tPU1dbX2Nna29zd3t/g4eLk5ebn6Orr7O3u7/Dx8vP09fb3+Pn6+/z9/hsfensAAAABYktHRPw8DqN/AAAIwElEQVRo3q1ZbWxbVxl+bF/bSbMm8Vccx/lqnNKOldEhoAytFVQCTRRWNFa2gSbEVmkMRBkSgsKvaUUIia3SEKwgug9WNm2a6MRa0ICt5aOEjizks7XTJE3sOI4Tx47tfNjOIb78uPfce861r6+d7Pzx9b33PH7e533P+57zGpDHnWem92L746Nnwvu3CWE/doUQsm0ydcf+TAi5fVsYgZ8tEEII6dkeld2nE4QQQnq3DmE+crFApNG2DSbmz/9pY9swQr+qan4bZBiYwtYtMqvXIt6X8b+tkxl8fxgMq5dk624aeqim972Hdwe6diB3bJG/P6JeblYB4/lUb29bQ0PuaJIjM1wb+S+ckT736JMxVQFz5DfyCkzybqotUuiPNuu7qZoxXhbGnJ2pCeWaWJ5MMrYlGAdPBrVF8Nqc9NmkJ1l1bsrOl4MxMwJXg4LrOmRGGcjqYZwaMqHa8sx4eTcxyliqgQlKHy4NmWBtygR1lFEFrtuGMpOkJpNC5SIPwIRSBew1kNEqQ6bpdUMNyjhLisAUvarfBhnVT7dUg7K0VJ6MGntVKZNOAADcWjLjNSmDSR0y4zXFDKbL5hnVpArK2D7UtSsUHX9QIePQV6aCm2z7OgPBeOirACSvNltqd9OLmf8+QQLenoMKSn09gO8+f/54e6j/rw9wZPSVeS0z+BPS6wocUmBMDgDffO73X/ME37v8JQEIiSYjMoKAW+eJFX4FBa4ocM9dyF4KAMFXAYwbw6wI2BMt2NEK4Ka8EJaA+w5i6VIv8K4ZWJVTM3booowBHyjGAJ/iJjgBJAG7sj1ci+nUUKYiAQFxrgRmGbARmrunDN00Buz0RQAvo4yEYs8r2XKyGjI7fWEOxgkgBdg2KJlJw9U0AqArDHjMQCqjkEmzyig2OSrZhF1hoMUMLGZZm1RlJg1RZtNARwSwugDMsvraCzWQiSWB7gggtACIKGQ4ZSiKUxdFvCaRQSuAGSVdLQP2zU1aYSlMEyr5yR8B0KbAyAJbSpRx66OMMmTCrL5m9WRirAzGAA8lE1Z+Mw2guCmTkVeZplBoyfjCAFo4k5aADRSoMtPGZEYA94w8eYa1ScQGAAHAStJlRGZYDF6Y/HouPcApkwRSyANFAEAm5TRYTRgWb1yZPr6aHOBiJg0Q5OtRFAAg7DKIGfzHsQb8TrpWUYKPpgZx0NM8IT9wGtk04M4Cv2Vh3ABGH0sM4kDLTqm6vSYdkjeEqkpcCyGEkBulD16XYaw1wMxyiR6K8DC5FipM9u/vbnfcOA0kcvXl7acwnkonhfb9XX7n5FNAIl+nDTCBDb1WfTLfP+EFAPxhCmIsAKCxLg/Tg53ORmxO/1GqtfTQ49Un86NvtUgwExDnAgDst6zCfn+ro9m0PntegJLGAJ/+UcwjccG+KWA2AACeWTTI7j94lIkCacnpDLf8bN8EEAkAgGsVvuekm7eaWRRvxbUNANgFICrRA9Y2uDQXNiZDYQKKBC4gRZOumVPGuMvQw5IRk1xRmzG2aYghE6MwWTlv2s0AsLwix0yFfbh8huhmySDBkcmk5VCvsA8nKpk5BUa2ySYd/+YMyWzc0CrjVsnY5JeihgIXQlplWBiJzKwhCvVTp4nRF4v8gUsm0wFDP/ltrMBxmYzAkvnIO263q7i6Phe7NjJ8kz/tDn1F2vv6YjIZl2oSJSMLfMclv7O5sJ6JRyLXhkJ8V03uTVn80/LbbpWMXWBNqjsEwOJw+PFFIDv0l7dGxJLQ64khQawymYWyylgPArDbHd2fALB+9W/v9IslC6FjGokNm6zMQjk3caPx0I/fC//qAP1Km0odQHGRKlPeTdzYcfjJf918+pNmpVSqMAtaN5l1UQDA98iVgUcbpSNgWF0qMR0yc3ol4MTfx45LB820nNPa6etuFcaqr4w8bv/F1A8bANCmUjtLZp6pKRXIANh9ZurkDgamg0rgVJWxVFZG2p88OfppZh1QDk6TimJMBvCeGv2MCtNOQ6VZUGDknvRaljlplcrU8dZJTpl5ALA6gMVNTpnMijonP1UC03nxpEKmjZIxu1Rvy4HFNFI3Aod+Gde2rk89RskoMQMvsLnEN3bm1Smrez9+OloC8w0K06osIi+QLnDdegbF1fTvx7s++1KOxzlli0sMvVb6tlfBU3r+jBHuxsEf9Bw+t87DPGGNSVM8FqpACyAuccqwUvQAxcuPdH1vgkVp6pVtMrdSFG9popnnYcR/Ptz1nTEWxtUt+0nwMMrIgDpkACw/c9vdKbbnSr3dSlFaVDI0aNjNWUBays/ecTfbBc9RGB99W816llI3YRftN36Z2aHHIgxKQqQmaepBvAwM7mRgolEm9rQCW4RSlICcgc99jrn5gkhRvABJuXhlTLrKoOHX9zM3zyqrsg3IZ5q4gms265m0u4/lMvk0MLOsrIMl3tnKKIXZ08dyCZ0GptPK2k7QFLzAtbPntTFztG8Pc2v9gRVAHFb2GYuaAAZ0YO7t+yDbLHoop8C0URhmK1KGTLsA61Ovs+fC1XuG1UyuoLRopNB8bRdg//mrjSyXo0Nq/fdTU5g9hBwzqYLaMBU6rS98jDsP3SfNH1RQQqJJOvJolEkS9QBn7RRe+TD7cObeUWYz0gbg+hGbVOM0Ns0QdbycZb6QwrNUpL2EEEKkAmRxeNsAWPKEEEJ2KryZiWdTHMwztDF2GyGEENkXDocDgJMQQsgaReknOmPggJrNlwkhhBdjliejC9N/l/pHR4YQQrLsny+mNUIIWaPpaklny/rTN4rKl+KJxuhilF9AC60AbUOoeacE5tQFdbO3+e3GuXgkXmSbUQk/ALESmcKbz7/N3ThX+s7jvs0scmuVyOTfOPsP7sZLpe887FovYJWSSWof5y5fPJ807iVc0fyzoH2+/vaFN1PGMJe4qsKZFBu92nd1HVsYHEx88Grfu7kaZlMywZQJYnZ5fmF+5noog62O8WUAJBWfDUfGg8u1zv4/hOOxsVN5c1MAAAAASUVORK5CYII=;" vertex="1" parent="1">
          <mxGeometry x="547.81" y="511" width="74.38" height="34" as="geometry" />
        </mxCell>
        <mxCell id="KAl-MF6hwwFQekzXLP5y-10" value="&lt;font style=&quot;font-size: 33px;&quot;&gt;……&lt;/font&gt;" style="ellipse;shape=cloud;whiteSpace=wrap;html=1;sketch=1;hachureGap=4;jiggle=2;curveFitting=1;fontFamily=Architects Daughter;fontSource=https%3A%2F%2Ffonts.googleapis.com%2Fcss%3Ffamily%3DArchitects%2BDaughter;" vertex="1" parent="1">
          <mxGeometry x="710" y="400" width="130" height="90" as="geometry" />
        </mxCell>
        <mxCell id="KAl-MF6hwwFQekzXLP5y-11" value="公域平台" style="text;html=1;align=center;verticalAlign=middle;whiteSpace=wrap;rounded=0;fontFamily=Architects Daughter;fontSource=https%3A%2F%2Ffonts.googleapis.com%2Fcss%3Ffamily%3DArchitects%2BDaughter;fontSize=32;fontStyle=1" vertex="1" parent="1">
          <mxGeometry x="-200" y="400" width="40" height="135" as="geometry" />
        </mxCell>
        <mxCell id="KAl-MF6hwwFQekzXLP5y-12" value="" style="rounded=1;whiteSpace=wrap;html=1;sketch=1;hachureGap=4;jiggle=2;curveFitting=1;fontFamily=Architects Daughter;fontSource=https%3A%2F%2Ffonts.googleapis.com%2Fcss%3Ffamily%3DArchitects%2BDaughter;fillColor=#dae8fc;strokeColor=#6c8ebf;" vertex="1" parent="1">
          <mxGeometry x="-230" y="10" width="1110" height="250" as="geometry" />
        </mxCell>
        <mxCell id="KAl-MF6hwwFQekzXLP5y-13" value="" style="endArrow=none;html=1;rounded=0;sketch=1;hachureGap=4;jiggle=2;curveFitting=1;fontFamily=Architects Daughter;fontSource=https%3A%2F%2Ffonts.googleapis.com%2Fcss%3Ffamily%3DArchitects%2BDaughter;" edge="1" parent="1">
          <mxGeometry width="50" height="50" relative="1" as="geometry">
            <mxPoint x="230" y="255" as="sourcePoint" />
            <mxPoint x="230" y="15" as="targetPoint" />
          </mxGeometry>
        </mxCell>
        <mxCell id="KAl-MF6hwwFQekzXLP5y-19" value="爬取策略" style="text;html=1;align=center;verticalAlign=middle;whiteSpace=wrap;rounded=0;fontFamily=Architects Daughter;fontSource=https%3A%2F%2Ffonts.googleapis.com%2Fcss%3Ffamily%3DArchitects%2BDaughter;fontSize=32;fontStyle=1" vertex="1" parent="1">
          <mxGeometry x="-210" y="60" width="40" height="135" as="geometry" />
        </mxCell>
        <mxCell id="KAl-MF6hwwFQekzXLP5y-21" value="&lt;font style=&quot;font-size: 18px;&quot;&gt;多样性&lt;/font&gt;" style="shape=hexagon;perimeter=hexagonPerimeter2;whiteSpace=wrap;html=1;fixedSize=1;sketch=1;hachureGap=4;jiggle=2;curveFitting=1;fontFamily=Architects Daughter;fontSource=https%3A%2F%2Ffonts.googleapis.com%2Fcss%3Ffamily%3DArchitects%2BDaughter;" vertex="1" parent="1">
          <mxGeometry x="-140" y="60" width="120" height="60" as="geometry" />
        </mxCell>
        <mxCell id="KAl-MF6hwwFQekzXLP5y-23" value="" style="strokeWidth=2;html=1;shape=mxgraph.flowchart.annotation_2;align=left;labelPosition=right;pointerEvents=1;sketch=1;hachureGap=4;jiggle=2;curveFitting=1;fontFamily=Architects Daughter;fontSource=https%3A%2F%2Ffonts.googleapis.com%2Fcss%3Ffamily%3DArchitects%2BDaughter;" vertex="1" parent="1">
          <mxGeometry x="-20" y="60" width="70" height="60" as="geometry" />
        </mxCell>
        <mxCell id="KAl-MF6hwwFQekzXLP5y-29" value="定向爬取" style="text;html=1;align=center;verticalAlign=middle;whiteSpace=wrap;rounded=0;fontFamily=Architects Daughter;fontSource=https%3A%2F%2Ffonts.googleapis.com%2Fcss%3Ffamily%3DArchitects%2BDaughter;fontSize=16;" vertex="1" parent="1">
          <mxGeometry x="60" y="50" width="80" height="30" as="geometry" />
        </mxCell>
        <mxCell id="KAl-MF6hwwFQekzXLP5y-30" value="关键词搜索 &lt;font style=&quot;font-size: 24px;&quot;&gt;+&lt;/font&gt; 热度综合排序" style="text;html=1;align=center;verticalAlign=middle;whiteSpace=wrap;rounded=0;fontFamily=Architects Daughter;fontSource=https%3A%2F%2Ffonts.googleapis.com%2Fcss%3Ffamily%3DArchitects%2BDaughter;fontSize=16;" vertex="1" parent="1">
          <mxGeometry x="60" y="100" width="120" height="30" as="geometry" />
        </mxCell>
        <mxCell id="KAl-MF6hwwFQekzXLP5y-32" value="&lt;font style=&quot;font-size: 18px;&quot;&gt;安全性&lt;/font&gt;" style="shape=hexagon;perimeter=hexagonPerimeter2;whiteSpace=wrap;html=1;fixedSize=1;sketch=1;hachureGap=4;jiggle=2;curveFitting=1;fontFamily=Architects Daughter;fontSource=https%3A%2F%2Ffonts.googleapis.com%2Fcss%3Ffamily%3DArchitects%2BDaughter;" vertex="1" parent="1">
          <mxGeometry x="-140" y="170" width="120" height="60" as="geometry" />
        </mxCell>
        <mxCell id="KAl-MF6hwwFQekzXLP5y-35" value="" style="strokeWidth=2;html=1;shape=mxgraph.flowchart.annotation_2;align=left;labelPosition=right;pointerEvents=1;sketch=1;hachureGap=4;jiggle=2;curveFitting=1;fontFamily=Architects Daughter;fontSource=https%3A%2F%2Ffonts.googleapis.com%2Fcss%3Ffamily%3DArchitects%2BDaughter;" vertex="1" parent="1">
          <mxGeometry x="-20" y="170" width="70" height="60" as="geometry" />
        </mxCell>
        <mxCell id="KAl-MF6hwwFQekzXLP5y-36" value="多节点部署" style="text;html=1;align=center;verticalAlign=middle;whiteSpace=wrap;rounded=0;fontFamily=Architects Daughter;fontSource=https%3A%2F%2Ffonts.googleapis.com%2Fcss%3Ffamily%3DArchitects%2BDaughter;fontSize=16;" vertex="1" parent="1">
          <mxGeometry x="56.879999999999995" y="160" width="110" height="30" as="geometry" />
        </mxCell>
        <mxCell id="KAl-MF6hwwFQekzXLP5y-37" value="模拟人工操作" style="text;html=1;align=center;verticalAlign=middle;whiteSpace=wrap;rounded=0;fontFamily=Architects Daughter;fontSource=https%3A%2F%2Ffonts.googleapis.com%2Fcss%3Ffamily%3DArchitects%2BDaughter;fontSize=16;" vertex="1" parent="1">
          <mxGeometry x="65" y="210" width="110" height="30" as="geometry" />
        </mxCell>
        <mxCell id="KAl-MF6hwwFQekzXLP5y-38" value="数据资产" style="text;html=1;align=center;verticalAlign=middle;whiteSpace=wrap;rounded=0;fontFamily=Architects Daughter;fontSource=https%3A%2F%2Ffonts.googleapis.com%2Fcss%3Ffamily%3DArchitects%2BDaughter;fontSize=32;fontStyle=1" vertex="1" parent="1">
          <mxGeometry x="251" y="60" width="40" height="135" as="geometry" />
        </mxCell>
        <mxCell id="KAl-MF6hwwFQekzXLP5y-39" value="" style="rounded=1;whiteSpace=wrap;html=1;sketch=1;hachureGap=4;jiggle=2;curveFitting=1;fontFamily=Architects Daughter;fontSource=https%3A%2F%2Ffonts.googleapis.com%2Fcss%3Ffamily%3DArchitects%2BDaughter;fillColor=#e1d5e7;strokeColor=#9673a6;" vertex="1" parent="1">
          <mxGeometry x="340" y="37.5" width="462.19" height="202.5" as="geometry" />
        </mxCell>
        <mxCell id="KAl-MF6hwwFQekzXLP5y-40" value="游戏" style="text;html=1;align=center;verticalAlign=middle;whiteSpace=wrap;rounded=0;fontFamily=Architects Daughter;fontSource=https%3A%2F%2Ffonts.googleapis.com%2Fcss%3Ffamily%3DArchitects%2BDaughter;fontSize=28;" vertex="1" parent="1">
          <mxGeometry x="354" y="50" width="60" height="30" as="geometry" />
        </mxCell>
        <mxCell id="KAl-MF6hwwFQekzXLP5y-41" value="" style="rounded=1;whiteSpace=wrap;html=1;sketch=1;hachureGap=4;jiggle=2;curveFitting=1;fontFamily=Architects Daughter;fontSource=https%3A%2F%2Ffonts.googleapis.com%2Fcss%3Ffamily%3DArchitects%2BDaughter;fillColor=#e1d5e7;strokeColor=#9673a6;" vertex="1" parent="1">
          <mxGeometry x="420" y="80" width="360" height="140" as="geometry" />
        </mxCell>
        <mxCell id="KAl-MF6hwwFQekzXLP5y-42" value="KOL" style="text;html=1;align=center;verticalAlign=middle;whiteSpace=wrap;rounded=0;fontFamily=Architects Daughter;fontSource=https%3A%2F%2Ffonts.googleapis.com%2Fcss%3Ffamily%3DArchitects%2BDaughter;fontSize=24;" vertex="1" parent="1">
          <mxGeometry x="430" y="90" width="60" height="30" as="geometry" />
        </mxCell>
        <mxCell id="KAl-MF6hwwFQekzXLP5y-43" value="" style="rounded=1;whiteSpace=wrap;html=1;sketch=1;hachureGap=4;jiggle=2;curveFitting=1;fontFamily=Architects Daughter;fontSource=https%3A%2F%2Ffonts.googleapis.com%2Fcss%3Ffamily%3DArchitects%2BDaughter;fillColor=#e1d5e7;strokeColor=#9673a6;" vertex="1" parent="1">
          <mxGeometry x="490" y="110" width="270" height="90" as="geometry" />
        </mxCell>
        <mxCell id="KAl-MF6hwwFQekzXLP5y-44" value="视频/图文贴" style="text;html=1;align=center;verticalAlign=middle;whiteSpace=wrap;rounded=0;fontFamily=Architects Daughter;fontSource=https%3A%2F%2Ffonts.googleapis.com%2Fcss%3Ffamily%3DArchitects%2BDaughter;fontSize=20;" vertex="1" parent="1">
          <mxGeometry x="480" y="120" width="150" height="30" as="geometry" />
        </mxCell>
        <mxCell id="KAl-MF6hwwFQekzXLP5y-45" value="" style="rounded=1;whiteSpace=wrap;html=1;sketch=1;hachureGap=4;jiggle=2;curveFitting=1;fontFamily=Architects Daughter;fontSource=https%3A%2F%2Ffonts.googleapis.com%2Fcss%3Ffamily%3DArchitects%2BDaughter;fillColor=#e1d5e7;strokeColor=#9673a6;" vertex="1" parent="1">
          <mxGeometry x="620" y="140" width="120" height="50" as="geometry" />
        </mxCell>
        <mxCell id="KAl-MF6hwwFQekzXLP5y-46" value="评论集合" style="text;html=1;align=center;verticalAlign=middle;whiteSpace=wrap;rounded=0;fontFamily=Architects Daughter;fontSource=https%3A%2F%2Ffonts.googleapis.com%2Fcss%3Ffamily%3DArchitects%2BDaughter;fontSize=16;" vertex="1" parent="1">
          <mxGeometry x="630" y="140" width="70" height="30" as="geometry" />
        </mxCell>
        <mxCell id="KAl-MF6hwwFQekzXLP5y-47" value="四级资产" style="text;html=1;align=center;verticalAlign=middle;whiteSpace=wrap;rounded=0;fontFamily=Architects Daughter;fontSource=https%3A%2F%2Ffonts.googleapis.com%2Fcss%3Ffamily%3DArchitects%2BDaughter;fontSize=20;fontStyle=1" vertex="1" parent="1">
          <mxGeometry x="300" y="60" width="20" height="135" as="geometry" />
        </mxCell>
        <mxCell id="KAl-MF6hwwFQekzXLP5y-49" value="" style="rounded=1;whiteSpace=wrap;html=1;sketch=1;hachureGap=4;jiggle=2;curveFitting=1;fontFamily=Architects Daughter;fontSource=https%3A%2F%2Ffonts.googleapis.com%2Fcss%3Ffamily%3DArchitects%2BDaughter;fillColor=#ffe6cc;strokeColor=#d79b00;" vertex="1" parent="1">
          <mxGeometry x="-230" y="-340" width="1140" height="250" as="geometry" />
        </mxCell>
        <mxCell id="KAl-MF6hwwFQekzXLP5y-50" value="内容理解" style="text;html=1;align=center;verticalAlign=middle;whiteSpace=wrap;rounded=0;fontFamily=Architects Daughter;fontSource=https%3A%2F%2Ffonts.googleapis.com%2Fcss%3Ffamily%3DArchitects%2BDaughter;fontSize=32;fontStyle=1" vertex="1" parent="1">
          <mxGeometry x="-200" y="-282.5" width="40" height="135" as="geometry" />
        </mxCell>
        <mxCell id="KAl-MF6hwwFQekzXLP5y-53" value="&lt;font style=&quot;font-size: 22px;&quot;&gt;传统算法&lt;br&gt;&lt;/font&gt;" style="rounded=0;whiteSpace=wrap;html=1;sketch=1;hachureGap=4;jiggle=2;curveFitting=1;fontFamily=Architects Daughter;fontSource=https%3A%2F%2Ffonts.googleapis.com%2Fcss%3Ffamily%3DArchitects%2BDaughter;" vertex="1" parent="1">
          <mxGeometry x="-50" y="-290" width="150" height="80" as="geometry" />
        </mxCell>
        <mxCell id="KAl-MF6hwwFQekzXLP5y-54" value="兼顾效率与成本" style="text;html=1;align=center;verticalAlign=middle;whiteSpace=wrap;rounded=0;fontFamily=Architects Daughter;fontSource=https%3A%2F%2Ffonts.googleapis.com%2Fcss%3Ffamily%3DArchitects%2BDaughter;fontSize=20;fontStyle=1" vertex="1" parent="1">
          <mxGeometry x="-140" y="-282.5" width="20" height="135" as="geometry" />
        </mxCell>
        <mxCell id="KAl-MF6hwwFQekzXLP5y-57" value="&lt;font style=&quot;font-size: 22px;&quot;&gt;Qwen&lt;/font&gt;" style="rounded=0;whiteSpace=wrap;html=1;sketch=1;hachureGap=4;jiggle=2;curveFitting=1;fontFamily=Architects Daughter;fontSource=https%3A%2F%2Ffonts.googleapis.com%2Fcss%3Ffamily%3DArchitects%2BDaughter;" vertex="1" parent="1">
          <mxGeometry x="187.5" y="-290" width="142.5" height="80" as="geometry" />
        </mxCell>
        <mxCell id="KAl-MF6hwwFQekzXLP5y-58" value="海量内容的过滤" style="text;html=1;align=center;verticalAlign=middle;whiteSpace=wrap;rounded=0;fontFamily=Architects Daughter;fontSource=https%3A%2F%2Ffonts.googleapis.com%2Fcss%3Ffamily%3DArchitects%2BDaughter;fontSize=16;" vertex="1" parent="1">
          <mxGeometry x="-45" y="-147.5" width="120" height="40" as="geometry" />
        </mxCell>
        <mxCell id="KAl-MF6hwwFQekzXLP5y-60" value="" style="endArrow=classic;html=1;rounded=0;sketch=1;hachureGap=4;jiggle=2;curveFitting=1;fontFamily=Architects Daughter;fontSource=https%3A%2F%2Ffonts.googleapis.com%2Fcss%3Ffamily%3DArchitects%2BDaughter;" edge="1" parent="1">
          <mxGeometry width="50" height="50" relative="1" as="geometry">
            <mxPoint x="14.410000000000025" y="-210" as="sourcePoint" />
            <mxPoint x="14.410000000000025" y="-160" as="targetPoint" />
          </mxGeometry>
        </mxCell>
        <mxCell id="KAl-MF6hwwFQekzXLP5y-61" value="视频字幕的提取" style="text;html=1;align=center;verticalAlign=middle;whiteSpace=wrap;rounded=0;fontFamily=Architects Daughter;fontSource=https%3A%2F%2Ffonts.googleapis.com%2Fcss%3Ffamily%3DArchitects%2BDaughter;fontSize=16;" vertex="1" parent="1">
          <mxGeometry x="200" y="-147.5" width="120" height="40" as="geometry" />
        </mxCell>
        <mxCell id="KAl-MF6hwwFQekzXLP5y-62" value="" style="endArrow=classic;html=1;rounded=0;sketch=1;hachureGap=4;jiggle=2;curveFitting=1;fontFamily=Architects Daughter;fontSource=https%3A%2F%2Ffonts.googleapis.com%2Fcss%3Ffamily%3DArchitects%2BDaughter;" edge="1" parent="1">
          <mxGeometry width="50" height="50" relative="1" as="geometry">
            <mxPoint x="258.15999999999997" y="-200" as="sourcePoint" />
            <mxPoint x="258.15999999999997" y="-150" as="targetPoint" />
          </mxGeometry>
        </mxCell>
        <mxCell id="KAl-MF6hwwFQekzXLP5y-63" value="&lt;font style=&quot;font-size: 22px;&quot;&gt;OpenAI Whisper&lt;/font&gt;" style="rounded=0;whiteSpace=wrap;html=1;sketch=1;hachureGap=4;jiggle=2;curveFitting=1;fontFamily=Architects Daughter;fontSource=https%3A%2F%2Ffonts.googleapis.com%2Fcss%3Ffamily%3DArchitects%2BDaughter;" vertex="1" parent="1">
          <mxGeometry x="414" y="-290" width="185" height="80" as="geometry" />
        </mxCell>
        <mxCell id="KAl-MF6hwwFQekzXLP5y-64" value="视频语音转文本" style="text;html=1;align=center;verticalAlign=middle;whiteSpace=wrap;rounded=0;fontFamily=Architects Daughter;fontSource=https%3A%2F%2Ffonts.googleapis.com%2Fcss%3Ffamily%3DArchitects%2BDaughter;fontSize=16;" vertex="1" parent="1">
          <mxGeometry x="446.5" y="-147.5" width="120" height="40" as="geometry" />
        </mxCell>
        <mxCell id="KAl-MF6hwwFQekzXLP5y-65" value="" style="endArrow=classic;html=1;rounded=0;sketch=1;hachureGap=4;jiggle=2;curveFitting=1;fontFamily=Architects Daughter;fontSource=https%3A%2F%2Ffonts.googleapis.com%2Fcss%3Ffamily%3DArchitects%2BDaughter;" edge="1" parent="1">
          <mxGeometry width="50" height="50" relative="1" as="geometry">
            <mxPoint x="505.90999999999997" y="-200" as="sourcePoint" />
            <mxPoint x="505.90999999999997" y="-150" as="targetPoint" />
          </mxGeometry>
        </mxCell>
        <mxCell id="KAl-MF6hwwFQekzXLP5y-66" value="&lt;font style=&quot;font-size: 22px;&quot;&gt;Google Gemini&lt;/font&gt;" style="rounded=0;whiteSpace=wrap;html=1;sketch=1;hachureGap=4;jiggle=2;curveFitting=1;fontFamily=Architects Daughter;fontSource=https%3A%2F%2Ffonts.googleapis.com%2Fcss%3Ffamily%3DArchitects%2BDaughter;" vertex="1" parent="1">
          <mxGeometry x="695" y="-290" width="185" height="80" as="geometry" />
        </mxCell>
        <mxCell id="KAl-MF6hwwFQekzXLP5y-67" value="文本内容的理解" style="text;html=1;align=center;verticalAlign=middle;whiteSpace=wrap;rounded=0;fontFamily=Architects Daughter;fontSource=https%3A%2F%2Ffonts.googleapis.com%2Fcss%3Ffamily%3DArchitects%2BDaughter;fontSize=16;" vertex="1" parent="1">
          <mxGeometry x="727.5" y="-147.5" width="120" height="40" as="geometry" />
        </mxCell>
        <mxCell id="KAl-MF6hwwFQekzXLP5y-68" value="" style="endArrow=classic;html=1;rounded=0;sketch=1;hachureGap=4;jiggle=2;curveFitting=1;fontFamily=Architects Daughter;fontSource=https%3A%2F%2Ffonts.googleapis.com%2Fcss%3Ffamily%3DArchitects%2BDaughter;" edge="1" parent="1">
          <mxGeometry width="50" height="50" relative="1" as="geometry">
            <mxPoint x="786.91" y="-197.5" as="sourcePoint" />
            <mxPoint x="786.91" y="-147.5" as="targetPoint" />
          </mxGeometry>
        </mxCell>
        <mxCell id="KAl-MF6hwwFQekzXLP5y-69" value="" style="html=1;shadow=0;dashed=0;align=center;verticalAlign=middle;shape=mxgraph.arrows2.arrow;dy=0.6;dx=40;notch=15;sketch=1;hachureGap=4;jiggle=2;curveFitting=1;fontFamily=Architects Daughter;fontSource=https%3A%2F%2Ffonts.googleapis.com%2Fcss%3Ffamily%3DArchitects%2BDaughter;" vertex="1" parent="1">
          <mxGeometry x="108" y="-265" width="72" height="30" as="geometry" />
        </mxCell>
        <mxCell id="KAl-MF6hwwFQekzXLP5y-70" value="" style="html=1;shadow=0;dashed=0;align=center;verticalAlign=middle;shape=mxgraph.arrows2.arrow;dy=0.6;dx=40;notch=15;sketch=1;hachureGap=4;jiggle=2;curveFitting=1;fontFamily=Architects Daughter;fontSource=https%3A%2F%2Ffonts.googleapis.com%2Fcss%3Ffamily%3DArchitects%2BDaughter;" vertex="1" parent="1">
          <mxGeometry x="340" y="-265" width="72" height="30" as="geometry" />
        </mxCell>
        <mxCell id="KAl-MF6hwwFQekzXLP5y-71" value="" style="html=1;shadow=0;dashed=0;align=center;verticalAlign=middle;shape=mxgraph.arrows2.arrow;dy=0.6;dx=40;notch=15;sketch=1;hachureGap=4;jiggle=2;curveFitting=1;fontFamily=Architects Daughter;fontSource=https%3A%2F%2Ffonts.googleapis.com%2Fcss%3Ffamily%3DArchitects%2BDaughter;" vertex="1" parent="1">
          <mxGeometry x="610.5" y="-265" width="72" height="30" as="geometry" />
        </mxCell>
        <mxCell id="KAl-MF6hwwFQekzXLP5y-72" value="" style="rounded=1;whiteSpace=wrap;html=1;sketch=1;hachureGap=4;jiggle=2;curveFitting=1;fontFamily=Architects Daughter;fontSource=https%3A%2F%2Ffonts.googleapis.com%2Fcss%3Ffamily%3DArchitects%2BDaughter;fillColor=#f8cecc;strokeColor=#b85450;" vertex="1" parent="1">
          <mxGeometry x="-235" y="-750" width="1465" height="310" as="geometry" />
        </mxCell>
        <mxCell id="KAl-MF6hwwFQekzXLP5y-73" value="基于数据资产" style="text;html=1;align=center;verticalAlign=middle;whiteSpace=wrap;rounded=0;fontFamily=Architects Daughter;fontSource=https%3A%2F%2Ffonts.googleapis.com%2Fcss%3Ffamily%3DArchitects%2BDaughter;fontSize=32;fontStyle=1" vertex="1" parent="1">
          <mxGeometry x="-200" y="-672" width="40" height="135" as="geometry" />
        </mxCell>
        <mxCell id="KAl-MF6hwwFQekzXLP5y-74" value="的价值提取" style="text;html=1;align=center;verticalAlign=middle;whiteSpace=wrap;rounded=0;fontFamily=Architects Daughter;fontSource=https%3A%2F%2Ffonts.googleapis.com%2Fcss%3Ffamily%3DArchitects%2BDaughter;fontSize=32;fontStyle=1" vertex="1" parent="1">
          <mxGeometry x="-160" y="-680" width="40" height="135" as="geometry" />
        </mxCell>
        <mxCell id="KAl-MF6hwwFQekzXLP5y-76" value="&lt;font style=&quot;font-size: 20px;&quot;&gt;价值KOL挖掘&lt;/font&gt;" style="rounded=0;whiteSpace=wrap;html=1;sketch=1;hachureGap=4;jiggle=2;curveFitting=1;fontFamily=Architects Daughter;fontSource=https%3A%2F%2Ffonts.googleapis.com%2Fcss%3Ffamily%3DArchitects%2BDaughter;fontSize=16;" vertex="1" parent="1">
          <mxGeometry x="-67.5" y="-720" width="207.5" height="60" as="geometry" />
        </mxCell>
        <mxCell id="KAl-MF6hwwFQekzXLP5y-77" value="" style="endArrow=none;html=1;rounded=0;sketch=1;hachureGap=4;jiggle=2;curveFitting=1;fontFamily=Architects Daughter;fontSource=https%3A%2F%2Ffonts.googleapis.com%2Fcss%3Ffamily%3DArchitects%2BDaughter;" edge="1" parent="1">
          <mxGeometry width="50" height="50" relative="1" as="geometry">
            <mxPoint x="-50" y="-470" as="sourcePoint" />
            <mxPoint x="-50" y="-660" as="targetPoint" />
          </mxGeometry>
        </mxCell>
        <mxCell id="KAl-MF6hwwFQekzXLP5y-78" value="" style="endArrow=classic;html=1;rounded=0;sketch=1;hachureGap=4;jiggle=2;curveFitting=1;fontFamily=Architects Daughter;fontSource=https%3A%2F%2Ffonts.googleapis.com%2Fcss%3Ffamily%3DArchitects%2BDaughter;" edge="1" parent="1">
          <mxGeometry width="50" height="50" relative="1" as="geometry">
            <mxPoint x="-50" y="-630" as="sourcePoint" />
            <mxPoint x="10" y="-630" as="targetPoint" />
          </mxGeometry>
        </mxCell>
        <mxCell id="KAl-MF6hwwFQekzXLP5y-79" value="全网挖掘" style="text;html=1;align=left;verticalAlign=middle;whiteSpace=wrap;rounded=0;fontFamily=Architects Daughter;fontSource=https%3A%2F%2Ffonts.googleapis.com%2Fcss%3Ffamily%3DArchitects%2BDaughter;fontSize=16;" vertex="1" parent="1">
          <mxGeometry x="16.5" y="-640" width="83.5" height="30" as="geometry" />
        </mxCell>
        <mxCell id="KAl-MF6hwwFQekzXLP5y-80" value="" style="endArrow=classic;html=1;rounded=0;sketch=1;hachureGap=4;jiggle=2;curveFitting=1;fontFamily=Architects Daughter;fontSource=https%3A%2F%2Ffonts.googleapis.com%2Fcss%3Ffamily%3DArchitects%2BDaughter;" edge="1" parent="1">
          <mxGeometry width="50" height="50" relative="1" as="geometry">
            <mxPoint x="-50" y="-590" as="sourcePoint" />
            <mxPoint x="10" y="-590" as="targetPoint" />
          </mxGeometry>
        </mxCell>
        <mxCell id="KAl-MF6hwwFQekzXLP5y-81" value="建联" style="text;html=1;align=center;verticalAlign=middle;whiteSpace=wrap;rounded=0;fontFamily=Architects Daughter;fontSource=https%3A%2F%2Ffonts.googleapis.com%2Fcss%3Ffamily%3DArchitects%2BDaughter;fontSize=16;" vertex="1" parent="1">
          <mxGeometry x="-24" y="-603" width="120.12" height="30" as="geometry" />
        </mxCell>
        <mxCell id="KAl-MF6hwwFQekzXLP5y-82" value="" style="endArrow=classic;html=1;rounded=0;sketch=1;hachureGap=4;jiggle=2;curveFitting=1;fontFamily=Architects Daughter;fontSource=https%3A%2F%2Ffonts.googleapis.com%2Fcss%3Ffamily%3DArchitects%2BDaughter;" edge="1" parent="1">
          <mxGeometry width="50" height="50" relative="1" as="geometry">
            <mxPoint x="-50" y="-550" as="sourcePoint" />
            <mxPoint x="10" y="-550" as="targetPoint" />
          </mxGeometry>
        </mxCell>
        <mxCell id="KAl-MF6hwwFQekzXLP5y-85" value="合作" style="text;html=1;align=center;verticalAlign=middle;whiteSpace=wrap;rounded=0;fontFamily=Architects Daughter;fontSource=https%3A%2F%2Ffonts.googleapis.com%2Fcss%3Ffamily%3DArchitects%2BDaughter;fontSize=16;" vertex="1" parent="1">
          <mxGeometry x="-3.810000000000004" y="-567" width="80.12" height="30" as="geometry" />
        </mxCell>
        <mxCell id="KAl-MF6hwwFQekzXLP5y-86" value="" style="endArrow=classic;html=1;rounded=0;sketch=1;hachureGap=4;jiggle=2;curveFitting=1;fontFamily=Architects Daughter;fontSource=https%3A%2F%2Ffonts.googleapis.com%2Fcss%3Ffamily%3DArchitects%2BDaughter;" edge="1" parent="1">
          <mxGeometry width="50" height="50" relative="1" as="geometry">
            <mxPoint x="-50" y="-515.59" as="sourcePoint" />
            <mxPoint x="10" y="-515.59" as="targetPoint" />
          </mxGeometry>
        </mxCell>
        <mxCell id="KAl-MF6hwwFQekzXLP5y-87" value="带量（流水）" style="text;html=1;align=left;verticalAlign=middle;whiteSpace=wrap;rounded=0;fontFamily=Architects Daughter;fontSource=https%3A%2F%2Ffonts.googleapis.com%2Fcss%3Ffamily%3DArchitects%2BDaughter;fontSize=16;" vertex="1" parent="1">
          <mxGeometry x="16.5" y="-530" width="112.12" height="30" as="geometry" />
        </mxCell>
        <mxCell id="KAl-MF6hwwFQekzXLP5y-88" value="" style="endArrow=classic;html=1;rounded=0;sketch=1;hachureGap=4;jiggle=2;curveFitting=1;fontFamily=Architects Daughter;fontSource=https%3A%2F%2Ffonts.googleapis.com%2Fcss%3Ffamily%3DArchitects%2BDaughter;" edge="1" parent="1">
          <mxGeometry width="50" height="50" relative="1" as="geometry">
            <mxPoint x="-50" y="-480" as="sourcePoint" />
            <mxPoint x="10" y="-480" as="targetPoint" />
          </mxGeometry>
        </mxCell>
        <mxCell id="KAl-MF6hwwFQekzXLP5y-89" value="效果跟踪" style="text;html=1;align=center;verticalAlign=middle;whiteSpace=wrap;rounded=0;fontFamily=Architects Daughter;fontSource=https%3A%2F%2Ffonts.googleapis.com%2Fcss%3Ffamily%3DArchitects%2BDaughter;fontSize=16;" vertex="1" parent="1">
          <mxGeometry x="10" y="-494" width="80.12" height="30" as="geometry" />
        </mxCell>
        <mxCell id="KAl-MF6hwwFQekzXLP5y-90" value="&lt;span style=&quot;font-size: 20px;&quot;&gt;算法内容库扩充&lt;/span&gt;" style="rounded=0;whiteSpace=wrap;html=1;sketch=1;hachureGap=4;jiggle=2;curveFitting=1;fontFamily=Architects Daughter;fontSource=https%3A%2F%2Ffonts.googleapis.com%2Fcss%3Ffamily%3DArchitects%2BDaughter;fontSize=16;" vertex="1" parent="1">
          <mxGeometry x="206.5" y="-720" width="207.5" height="60" as="geometry" />
        </mxCell>
        <mxCell id="KAl-MF6hwwFQekzXLP5y-91" value="" style="endArrow=none;html=1;rounded=0;sketch=1;hachureGap=4;jiggle=2;curveFitting=1;fontFamily=Architects Daughter;fontSource=https%3A%2F%2Ffonts.googleapis.com%2Fcss%3Ffamily%3DArchitects%2BDaughter;exitX=0.162;exitY=0.962;exitDx=0;exitDy=0;exitPerimeter=0;" edge="1" parent="1">
          <mxGeometry width="50" height="50" relative="1" as="geometry">
            <mxPoint x="230" y="-470" as="sourcePoint" />
            <mxPoint x="230" y="-660" as="targetPoint" />
          </mxGeometry>
        </mxCell>
        <mxCell id="KAl-MF6hwwFQekzXLP5y-95" value="" style="endArrow=classic;html=1;rounded=0;sketch=1;hachureGap=4;jiggle=2;curveFitting=1;fontFamily=Architects Daughter;fontSource=https%3A%2F%2Ffonts.googleapis.com%2Fcss%3Ffamily%3DArchitects%2BDaughter;" edge="1" parent="1">
          <mxGeometry width="50" height="50" relative="1" as="geometry">
            <mxPoint x="230" y="-625.59" as="sourcePoint" />
            <mxPoint x="290" y="-625.59" as="targetPoint" />
          </mxGeometry>
        </mxCell>
        <mxCell id="KAl-MF6hwwFQekzXLP5y-96" value="针对不同游戏&lt;br&gt;定向挖掘" style="text;html=1;align=left;verticalAlign=middle;whiteSpace=wrap;rounded=0;fontFamily=Architects Daughter;fontSource=https%3A%2F%2Ffonts.googleapis.com%2Fcss%3Ffamily%3DArchitects%2BDaughter;fontSize=16;" vertex="1" parent="1">
          <mxGeometry x="300" y="-633" width="120" height="30" as="geometry" />
        </mxCell>
        <mxCell id="KAl-MF6hwwFQekzXLP5y-97" value="" style="endArrow=classic;html=1;rounded=0;sketch=1;hachureGap=4;jiggle=2;curveFitting=1;fontFamily=Architects Daughter;fontSource=https%3A%2F%2Ffonts.googleapis.com%2Fcss%3Ffamily%3DArchitects%2BDaughter;" edge="1" parent="1">
          <mxGeometry width="50" height="50" relative="1" as="geometry">
            <mxPoint x="231" y="-567" as="sourcePoint" />
            <mxPoint x="291" y="-567" as="targetPoint" />
          </mxGeometry>
        </mxCell>
        <mxCell id="KAl-MF6hwwFQekzXLP5y-98" value="效果评估" style="text;html=1;align=center;verticalAlign=middle;whiteSpace=wrap;rounded=0;fontFamily=Architects Daughter;fontSource=https%3A%2F%2Ffonts.googleapis.com%2Fcss%3Ffamily%3DArchitects%2BDaughter;fontSize=16;" vertex="1" parent="1">
          <mxGeometry x="274.94" y="-581" width="120.12" height="30" as="geometry" />
        </mxCell>
        <mxCell id="KAl-MF6hwwFQekzXLP5y-99" value="" style="endArrow=classic;html=1;rounded=0;sketch=1;hachureGap=4;jiggle=2;curveFitting=1;fontFamily=Architects Daughter;fontSource=https%3A%2F%2Ffonts.googleapis.com%2Fcss%3Ffamily%3DArchitects%2BDaughter;" edge="1" parent="1">
          <mxGeometry width="50" height="50" relative="1" as="geometry">
            <mxPoint x="231" y="-510" as="sourcePoint" />
            <mxPoint x="291" y="-510" as="targetPoint" />
          </mxGeometry>
        </mxCell>
        <mxCell id="KAl-MF6hwwFQekzXLP5y-100" value="上线" style="text;html=1;align=center;verticalAlign=middle;whiteSpace=wrap;rounded=0;fontFamily=Architects Daughter;fontSource=https%3A%2F%2Ffonts.googleapis.com%2Fcss%3Ffamily%3DArchitects%2BDaughter;fontSize=16;" vertex="1" parent="1">
          <mxGeometry x="264.94" y="-524" width="120.12" height="30" as="geometry" />
        </mxCell>
        <mxCell id="KAl-MF6hwwFQekzXLP5y-101" value="&lt;span style=&quot;font-size: 20px;&quot;&gt;游戏版本报告&lt;/span&gt;" style="rounded=0;whiteSpace=wrap;html=1;sketch=1;hachureGap=4;jiggle=2;curveFitting=1;fontFamily=Architects Daughter;fontSource=https%3A%2F%2Ffonts.googleapis.com%2Fcss%3Ffamily%3DArchitects%2BDaughter;fontSize=16;" vertex="1" parent="1">
          <mxGeometry x="490" y="-720" width="207.5" height="60" as="geometry" />
        </mxCell>
        <mxCell id="KAl-MF6hwwFQekzXLP5y-102" value="" style="endArrow=none;html=1;rounded=0;sketch=1;hachureGap=4;jiggle=2;curveFitting=1;fontFamily=Architects Daughter;fontSource=https%3A%2F%2Ffonts.googleapis.com%2Fcss%3Ffamily%3DArchitects%2BDaughter;exitX=0.162;exitY=0.962;exitDx=0;exitDy=0;exitPerimeter=0;" edge="1" parent="1">
          <mxGeometry width="50" height="50" relative="1" as="geometry">
            <mxPoint x="518.8199999999999" y="-470" as="sourcePoint" />
            <mxPoint x="518.8199999999999" y="-660" as="targetPoint" />
          </mxGeometry>
        </mxCell>
        <mxCell id="KAl-MF6hwwFQekzXLP5y-103" value="" style="endArrow=classic;html=1;rounded=0;sketch=1;hachureGap=4;jiggle=2;curveFitting=1;fontFamily=Architects Daughter;fontSource=https%3A%2F%2Ffonts.googleapis.com%2Fcss%3Ffamily%3DArchitects%2BDaughter;" edge="1" parent="1">
          <mxGeometry width="50" height="50" relative="1" as="geometry">
            <mxPoint x="520" y="-625.59" as="sourcePoint" />
            <mxPoint x="580" y="-625.59" as="targetPoint" />
          </mxGeometry>
        </mxCell>
        <mxCell id="KAl-MF6hwwFQekzXLP5y-104" value="指定游戏版本变更内容挖掘" style="text;html=1;align=left;verticalAlign=middle;whiteSpace=wrap;rounded=0;fontFamily=Architects Daughter;fontSource=https%3A%2F%2Ffonts.googleapis.com%2Fcss%3Ffamily%3DArchitects%2BDaughter;fontSize=16;" vertex="1" parent="1">
          <mxGeometry x="586.5" y="-640" width="120" height="30" as="geometry" />
        </mxCell>
        <mxCell id="KAl-MF6hwwFQekzXLP5y-105" value="" style="endArrow=classic;html=1;rounded=0;sketch=1;hachureGap=4;jiggle=2;curveFitting=1;fontFamily=Architects Daughter;fontSource=https%3A%2F%2Ffonts.googleapis.com%2Fcss%3Ffamily%3DArchitects%2BDaughter;" edge="1" parent="1">
          <mxGeometry width="50" height="50" relative="1" as="geometry">
            <mxPoint x="520" y="-567" as="sourcePoint" />
            <mxPoint x="580" y="-567" as="targetPoint" />
          </mxGeometry>
        </mxCell>
        <mxCell id="KAl-MF6hwwFQekzXLP5y-106" value="全面准确的版本报告整理" style="text;html=1;align=left;verticalAlign=middle;whiteSpace=wrap;rounded=0;fontFamily=Architects Daughter;fontSource=https%3A%2F%2Ffonts.googleapis.com%2Fcss%3Ffamily%3DArchitects%2BDaughter;fontSize=16;" vertex="1" parent="1">
          <mxGeometry x="586.5" y="-581" width="120" height="30" as="geometry" />
        </mxCell>
        <mxCell id="KAl-MF6hwwFQekzXLP5y-107" value="" style="endArrow=classic;html=1;rounded=0;sketch=1;hachureGap=4;jiggle=2;curveFitting=1;fontFamily=Architects Daughter;fontSource=https%3A%2F%2Ffonts.googleapis.com%2Fcss%3Ffamily%3DArchitects%2BDaughter;" edge="1" parent="1">
          <mxGeometry width="50" height="50" relative="1" as="geometry">
            <mxPoint x="520" y="-509.59000000000003" as="sourcePoint" />
            <mxPoint x="580" y="-509.59000000000003" as="targetPoint" />
          </mxGeometry>
        </mxCell>
        <mxCell id="KAl-MF6hwwFQekzXLP5y-108" value="结合玩家游戏数据整理成个性化报告并推送" style="text;html=1;align=left;verticalAlign=middle;whiteSpace=wrap;rounded=0;fontFamily=Architects Daughter;fontSource=https%3A%2F%2Ffonts.googleapis.com%2Fcss%3Ffamily%3DArchitects%2BDaughter;fontSize=16;" vertex="1" parent="1">
          <mxGeometry x="590" y="-510" width="120" height="30" as="geometry" />
        </mxCell>
        <mxCell id="KAl-MF6hwwFQekzXLP5y-109" value="&lt;span style=&quot;font-size: 20px;&quot;&gt;游戏工具挖掘&lt;/span&gt;" style="rounded=0;whiteSpace=wrap;html=1;sketch=1;hachureGap=4;jiggle=2;curveFitting=1;fontFamily=Architects Daughter;fontSource=https%3A%2F%2Ffonts.googleapis.com%2Fcss%3Ffamily%3DArchitects%2BDaughter;fontSize=16;" vertex="1" parent="1">
          <mxGeometry x="827" y="-720" width="207.5" height="60" as="geometry" />
        </mxCell>
        <mxCell id="KAl-MF6hwwFQekzXLP5y-111" value="" style="endArrow=none;html=1;rounded=0;sketch=1;hachureGap=4;jiggle=2;curveFitting=1;fontFamily=Architects Daughter;fontSource=https%3A%2F%2Ffonts.googleapis.com%2Fcss%3Ffamily%3DArchitects%2BDaughter;" edge="1" parent="1">
          <mxGeometry width="50" height="50" relative="1" as="geometry">
            <mxPoint x="860" y="-460" as="sourcePoint" />
            <mxPoint x="860" y="-660" as="targetPoint" />
          </mxGeometry>
        </mxCell>
        <mxCell id="KAl-MF6hwwFQekzXLP5y-112" value="" style="endArrow=classic;html=1;rounded=0;sketch=1;hachureGap=4;jiggle=2;curveFitting=1;fontFamily=Architects Daughter;fontSource=https%3A%2F%2Ffonts.googleapis.com%2Fcss%3Ffamily%3DArchitects%2BDaughter;" edge="1" parent="1">
          <mxGeometry width="50" height="50" relative="1" as="geometry">
            <mxPoint x="860" y="-625.59" as="sourcePoint" />
            <mxPoint x="920" y="-625.59" as="targetPoint" />
          </mxGeometry>
        </mxCell>
        <mxCell id="KAl-MF6hwwFQekzXLP5y-113" value="帖子意图提取" style="text;html=1;align=left;verticalAlign=middle;whiteSpace=wrap;rounded=0;fontFamily=Architects Daughter;fontSource=https%3A%2F%2Ffonts.googleapis.com%2Fcss%3Ffamily%3DArchitects%2BDaughter;fontSize=16;" vertex="1" parent="1">
          <mxGeometry x="930" y="-640" width="120" height="30" as="geometry" />
        </mxCell>
        <mxCell id="KAl-MF6hwwFQekzXLP5y-114" value="" style="endArrow=classic;html=1;rounded=0;sketch=1;hachureGap=4;jiggle=2;curveFitting=1;fontFamily=Architects Daughter;fontSource=https%3A%2F%2Ffonts.googleapis.com%2Fcss%3Ffamily%3DArchitects%2BDaughter;" edge="1" parent="1">
          <mxGeometry width="50" height="50" relative="1" as="geometry">
            <mxPoint x="860" y="-581" as="sourcePoint" />
            <mxPoint x="920" y="-581" as="targetPoint" />
          </mxGeometry>
        </mxCell>
        <mxCell id="KAl-MF6hwwFQekzXLP5y-115" value="用户情感分析" style="text;html=1;align=left;verticalAlign=middle;whiteSpace=wrap;rounded=0;fontFamily=Architects Daughter;fontSource=https%3A%2F%2Ffonts.googleapis.com%2Fcss%3Ffamily%3DArchitects%2BDaughter;fontSize=16;" vertex="1" parent="1">
          <mxGeometry x="930" y="-597" width="120" height="30" as="geometry" />
        </mxCell>
        <mxCell id="KAl-MF6hwwFQekzXLP5y-116" value="" style="endArrow=classic;html=1;rounded=0;sketch=1;hachureGap=4;jiggle=2;curveFitting=1;fontFamily=Architects Daughter;fontSource=https%3A%2F%2Ffonts.googleapis.com%2Fcss%3Ffamily%3DArchitects%2BDaughter;" edge="1" parent="1">
          <mxGeometry width="50" height="50" relative="1" as="geometry">
            <mxPoint x="860" y="-538.1800000000001" as="sourcePoint" />
            <mxPoint x="920" y="-538.1800000000001" as="targetPoint" />
          </mxGeometry>
        </mxCell>
        <mxCell id="KAl-MF6hwwFQekzXLP5y-117" value="用户诉求洞察面板" style="text;html=1;align=left;verticalAlign=middle;whiteSpace=wrap;rounded=0;fontFamily=Architects Daughter;fontSource=https%3A%2F%2Ffonts.googleapis.com%2Fcss%3Ffamily%3DArchitects%2BDaughter;fontSize=16;" vertex="1" parent="1">
          <mxGeometry x="930" y="-551" width="130" height="30" as="geometry" />
        </mxCell>
        <mxCell id="KAl-MF6hwwFQekzXLP5y-118" value="" style="endArrow=classic;html=1;rounded=0;sketch=1;hachureGap=4;jiggle=2;curveFitting=1;fontFamily=Architects Daughter;fontSource=https%3A%2F%2Ffonts.googleapis.com%2Fcss%3Ffamily%3DArchitects%2BDaughter;" edge="1" parent="1">
          <mxGeometry width="50" height="50" relative="1" as="geometry">
            <mxPoint x="860" y="-495.59000000000003" as="sourcePoint" />
            <mxPoint x="920" y="-495.59000000000003" as="targetPoint" />
          </mxGeometry>
        </mxCell>
        <mxCell id="KAl-MF6hwwFQekzXLP5y-121" value="运营抽象出工具需求" style="text;html=1;align=left;verticalAlign=middle;whiteSpace=wrap;rounded=0;fontFamily=Architects Daughter;fontSource=https%3A%2F%2Ffonts.googleapis.com%2Fcss%3Ffamily%3DArchitects%2BDaughter;fontSize=16;" vertex="1" parent="1">
          <mxGeometry x="930" y="-510" width="190" height="30" as="geometry" />
        </mxCell>
        <mxCell id="KAl-MF6hwwFQekzXLP5y-122" value="" style="endArrow=classic;html=1;rounded=0;sketch=1;hachureGap=4;jiggle=2;curveFitting=1;fontFamily=Architects Daughter;fontSource=https%3A%2F%2Ffonts.googleapis.com%2Fcss%3Ffamily%3DArchitects%2BDaughter;" edge="1" parent="1">
          <mxGeometry width="50" height="50" relative="1" as="geometry">
            <mxPoint x="860" y="-460" as="sourcePoint" />
            <mxPoint x="920" y="-460" as="targetPoint" />
          </mxGeometry>
        </mxCell>
        <mxCell id="KAl-MF6hwwFQekzXLP5y-123" value="工具开发与运营" style="text;html=1;align=left;verticalAlign=middle;whiteSpace=wrap;rounded=0;fontFamily=Architects Daughter;fontSource=https%3A%2F%2Ffonts.googleapis.com%2Fcss%3Ffamily%3DArchitects%2BDaughter;fontSize=16;" vertex="1" parent="1">
          <mxGeometry x="930" y="-475" width="190" height="30" as="geometry" />
        </mxCell>
      </root>
    </mxGraphModel>
  </diagram>
</mxfile>
